<svg xmlns="http://www.w3.org/2000/svg" viewBox="0 0 400 300">
  <defs>
    <linearGradient id="mountainGrad" x1="0%" y1="0%" x2="0%" y2="100%">
      <stop offset="0%" style="stop-color:#7dd3c0;stop-opacity:1" />
      <stop offset="100%" style="stop-color:#2c5f5f;stop-opacity:1" />
    </linearGradient>
    <linearGradient id="textGrad" x1="0%" y1="0%" x2="0%" y2="100%">
      <stop offset="0%" style="stop-color:#ffffff;stop-opacity:1" />
      <stop offset="100%" style="stop-color:#e0e0e0;stop-opacity:1" />
    </linearGradient>
  </defs>
  
  <!-- Badge outline -->
  <path d="M50 50 L350 50 Q380 50 380 80 L380 220 Q380 250 350 250 L50 250 Q20 250 20 220 L20 80 Q20 50 50 50 Z" 
        fill="#1e3a5f" stroke="#ffffff" stroke-width="3"/>
  
  <!-- Mountain background -->
  <rect x="30" y="60" width="340" height="120" rx="15" fill="url(#mountainGrad)"/>
  
  <!-- Mountains -->
  <path d="M50 160 L80 100 L110 130 L140 80 L170 110 L200 70 L230 100 L260 90 L290 120 L320 85 L350 110 L350 160 Z" 
        fill="#ffffff" opacity="0.9"/>
  
  <!-- Trees -->
  <polygon points="70,150 75,140 80,150" fill="#1e3a5f"/>
  <polygon points="100,155 105,145 110,155" fill="#1e3a5f"/>
  <polygon points="280,150 285,140 290,150" fill="#1e3a5f"/>
  <polygon points="310,155 315,145 320,155" fill="#1e3a5f"/>
  
  <!-- Divider line -->
  <line x1="40" y1="190" x2="360" y2="190" stroke="#ffffff" stroke-width="2"/>
  
  <!-- Text EN GR 10 -->
  <text x="200" y="230" font-family="Arial Black, sans-serif" font-size="42" font-weight="bold" 
        text-anchor="middle" fill="url(#textGrad)">EN GR 10</text>
  
  <!-- Stars -->
  <polygon points="160,215 162,221 168,221 163,225 165,231 160,227 155,231 157,225 152,221 158,221" fill="#ffffff"/>
  <polygon points="240,215 242,221 248,221 243,225 245,231 240,227 235,231 237,225 232,221 238,221" fill="#ffffff"/>
</svg>
